<svg width="320" height="520" viewBox="0 0 320 520" fill="none" xmlns="http://www.w3.org/2000/svg">
  <defs>
    <linearGradient id="bg" x1="40" y1="24" x2="268" y2="492" gradientUnits="userSpaceOnUse">
      <stop stop-color="#D6C3FF"/>
      <stop offset="0.48" stop-color="#CFA4F6"/>
      <stop offset="1" stop-color="#FF9EC9"/>
    </linearGradient>
    <radialGradient id="glow" cx="0" cy="0" r="1" gradientUnits="userSpaceOnUse" gradientTransform="translate(160 110) rotate(90) scale(120 92)">
      <stop stop-color="white" stop-opacity="0.95"/>
      <stop offset="1" stop-color="white" stop-opacity="0"/>
    </radialGradient>
    <filter id="soft" x="-20" y="-20" width="360" height="560" filterUnits="userSpaceOnUse">
      <feGaussianBlur stdDeviation="10"/>
    </filter>
  </defs>
  <rect x="8" y="8" width="304" height="504" rx="40" fill="url(#bg)"/>
  <rect x="20" y="20" width="280" height="480" rx="32" fill="rgba(255,255,255,0.10)" stroke="rgba(255,255,255,0.45)" stroke-width="2"/>
  <rect x="36" y="36" width="248" height="448" rx="26" fill="rgba(255,255,255,0.06)" stroke="rgba(255,255,255,0.4)" stroke-width="1.5"/>
  <ellipse cx="160" cy="130" rx="96" ry="72" fill="url(#glow)" opacity="0.85"/>
  <g opacity="0.75">
    <path d="M160 120C178 120 192 105 192 87C192 69 178 54 160 54C142 54 128 69 128 87C128 105 142 120 160 120Z" fill="rgba(255,255,255,0.34)"/>
    <path d="M160 94L165.8 108H180L168.4 116.6L173 131L160 122L147 131L151.6 116.6L140 108H154.2L160 94Z" fill="rgba(255,255,255,0.92)"/>
  </g>
  <g opacity="0.7">
    <circle cx="160" cy="262" r="80" stroke="rgba(255,255,255,0.78)" stroke-width="2"/>
    <circle cx="160" cy="262" r="58" stroke="rgba(255,255,255,0.62)" stroke-width="1.5"/>
    <circle cx="160" cy="262" r="28" stroke="rgba(255,255,255,0.78)" stroke-width="1.5"/>
    <path d="M160 172V352" stroke="rgba(255,255,255,0.7)" stroke-width="2"/>
    <path d="M70 262H250" stroke="rgba(255,255,255,0.7)" stroke-width="2"/>
    <path d="M96 198L224 326" stroke="rgba(255,255,255,0.45)" stroke-width="1.5"/>
    <path d="M224 198L96 326" stroke="rgba(255,255,255,0.45)" stroke-width="1.5"/>
    <circle cx="160" cy="262" r="6" fill="white"/>
  </g>
  <g opacity="0.55">
    <path d="M160 214L167.2 232H186L170.8 242.4L176.8 260L160 248.8L143.2 260L149.2 242.4L134 232H152.8L160 214Z" fill="white"/>
    <path d="M160 332L165.8 346H180L168.4 354.6L173 369L160 360L147 369L151.6 354.6L140 346H154.2L160 332Z" fill="white"/>
  </g>
  <g opacity="0.72">
    <path d="M56 92L60.2 102.2L70.4 106.4L60.2 110.6L56 120.8L51.8 110.6L41.6 106.4L51.8 102.2L56 92Z" fill="white"/>
    <path d="M264 92L268.2 102.2L278.4 106.4L268.2 110.6L264 120.8L259.8 110.6L249.6 106.4L259.8 102.2L264 92Z" fill="white"/>
    <path d="M60 392L64.2 402.2L74.4 406.4L64.2 410.6L60 420.8L55.8 410.6L45.6 406.4L55.8 402.2L60 392Z" fill="white"/>
    <path d="M260 392L264.2 402.2L274.4 406.4L264.2 410.6L260 420.8L255.8 410.6L245.6 406.4L255.8 402.2L260 392Z" fill="white"/>
  </g>
  <g opacity="0.4" filter="url(#soft)">
    <circle cx="96" cy="156" r="12" fill="white"/>
    <circle cx="228" cy="144" r="10" fill="white"/>
    <circle cx="208" cy="372" r="12" fill="white"/>
    <circle cx="112" cy="382" r="9" fill="white"/>
  </g>
</svg>
